<mxfile host="65bd71144e">
    <diagram id="1LMEsfMPQfCeTXIz6R_N" name="Page-1">
        <mxGraphModel dx="3883" dy="2455" grid="1" gridSize="4" guides="1" tooltips="1" connect="1" arrows="1" fold="1" page="0" pageScale="1" pageWidth="850" pageHeight="1100" background="#FFFFFF" math="0" shadow="0">
            <root>
                <mxCell id="0"/>
                <mxCell id="1" parent="0"/>
                <mxCell id="221" style="edgeStyle=none;html=1;entryX=0.5;entryY=1;entryDx=0;entryDy=0;strokeColor=#1A1A1A;" edge="1" parent="1" source="206" target="208">
                    <mxGeometry relative="1" as="geometry"/>
                </mxCell>
                <mxCell id="206" value="DicountCode" style="whiteSpace=wrap;html=1;align=center;fillColor=#e3c800;fontColor=#000000;strokeColor=#B09500;" vertex="1" parent="1">
                    <mxGeometry x="440" y="-44" width="100" height="40" as="geometry"/>
                </mxCell>
                <mxCell id="219" style="edgeStyle=none;html=1;strokeColor=#1A1A1A;" edge="1" parent="1" source="207" target="208">
                    <mxGeometry relative="1" as="geometry"/>
                </mxCell>
                <mxCell id="207" value="CPF" style="whiteSpace=wrap;html=1;align=center;fillColor=#e3c800;fontColor=#000000;strokeColor=#B09500;" vertex="1" parent="1">
                    <mxGeometry x="328" y="-44" width="100" height="40" as="geometry"/>
                </mxCell>
                <mxCell id="208" value="Order" style="whiteSpace=wrap;html=1;align=center;fillColor=#e3c800;fontColor=#000000;strokeColor=#B09500;" vertex="1" parent="1">
                    <mxGeometry x="432" y="-144" width="112" height="40" as="geometry"/>
                </mxCell>
                <mxCell id="222" style="edgeStyle=none;html=1;strokeColor=#1A1A1A;" edge="1" parent="1" source="209" target="208">
                    <mxGeometry relative="1" as="geometry"/>
                </mxCell>
                <mxCell id="209" value="OrderIdGenerator" style="whiteSpace=wrap;html=1;align=center;fillColor=#e3c800;fontColor=#000000;strokeColor=#B09500;direction=west;" vertex="1" parent="1">
                    <mxGeometry x="552" y="-44" width="108" height="40" as="geometry"/>
                </mxCell>
                <mxCell id="225" style="edgeStyle=none;html=1;entryX=1;entryY=0.5;entryDx=0;entryDy=0;strokeColor=#1A1A1A;" edge="1" parent="1" source="210" target="212">
                    <mxGeometry relative="1" as="geometry"/>
                </mxCell>
                <mxCell id="210" value="PhisicaAttributes" style="whiteSpace=wrap;html=1;align=center;fillColor=#e3c800;fontColor=#000000;strokeColor=#B09500;" vertex="1" parent="1">
                    <mxGeometry x="1104" y="-148" width="108" height="40" as="geometry"/>
                </mxCell>
                <mxCell id="232" style="edgeStyle=none;html=1;entryX=0;entryY=0.5;entryDx=0;entryDy=0;strokeColor=#1A1A1A;" edge="1" parent="1" source="211" target="208">
                    <mxGeometry relative="1" as="geometry"/>
                </mxCell>
                <mxCell id="211" value="PriceCalculator" style="whiteSpace=wrap;html=1;align=center;fillColor=#e3c800;fontColor=#000000;strokeColor=#B09500;" vertex="1" parent="1">
                    <mxGeometry x="272" y="-146" width="108" height="40" as="geometry"/>
                </mxCell>
                <mxCell id="224" style="edgeStyle=none;html=1;strokeColor=#1A1A1A;" edge="1" parent="1" source="212" target="214">
                    <mxGeometry relative="1" as="geometry"/>
                </mxCell>
                <mxCell id="212" value="Product" style="whiteSpace=wrap;html=1;align=center;fillColor=#e3c800;fontColor=#000000;strokeColor=#B09500;" vertex="1" parent="1">
                    <mxGeometry x="952" y="-148" width="108" height="40" as="geometry"/>
                </mxCell>
                <mxCell id="229" style="edgeStyle=none;html=1;strokeColor=#1A1A1A;" edge="1" parent="1" source="213" target="208">
                    <mxGeometry relative="1" as="geometry"/>
                </mxCell>
                <mxCell id="213" value="ShippingCalculator" style="whiteSpace=wrap;html=1;align=center;fillColor=#e3c800;fontColor=#000000;strokeColor=#B09500;" vertex="1" parent="1">
                    <mxGeometry x="592" y="-144" width="108" height="40" as="geometry"/>
                </mxCell>
                <mxCell id="214" value="ShoppingCart" style="whiteSpace=wrap;html=1;align=center;fillColor=#e3c800;fontColor=#000000;strokeColor=#B09500;" vertex="1" parent="1">
                    <mxGeometry x="796" y="-146" width="108" height="40" as="geometry"/>
                </mxCell>
                <mxCell id="223" style="edgeStyle=none;html=1;entryX=0.5;entryY=1;entryDx=0;entryDy=0;strokeColor=#1A1A1A;" edge="1" parent="1" source="215" target="214">
                    <mxGeometry relative="1" as="geometry"/>
                </mxCell>
                <mxCell id="215" value="ShoppingCartId&lt;br&gt;Generator" style="whiteSpace=wrap;html=1;align=center;fillColor=#e3c800;fontColor=#000000;strokeColor=#B09500;" vertex="1" parent="1">
                    <mxGeometry x="796" y="-46" width="108" height="40" as="geometry"/>
                </mxCell>
                <mxCell id="244" style="edgeStyle=none;html=1;exitX=0;exitY=0.5;exitDx=0;exitDy=0;exitPerimeter=0;entryX=0.5;entryY=0;entryDx=0;entryDy=0;fontColor=#1A1A1A;strokeColor=#1A1A1A;" edge="1" parent="1" source="233" target="208">
                    <mxGeometry relative="1" as="geometry"/>
                </mxCell>
                <mxCell id="265" style="edgeStyle=none;html=1;entryX=0;entryY=0.5;entryDx=0;entryDy=0;entryPerimeter=0;fontColor=#1A1A1A;strokeColor=#1A1A1A;" edge="1" parent="1" source="233" target="252">
                    <mxGeometry relative="1" as="geometry"/>
                </mxCell>
                <mxCell id="266" style="edgeStyle=none;html=1;exitX=1;exitY=0.5;exitDx=0;exitDy=0;exitPerimeter=0;entryX=0;entryY=0.5;entryDx=0;entryDy=0;entryPerimeter=0;fontColor=#1A1A1A;strokeColor=#1A1A1A;" edge="1" parent="1" source="233" target="255">
                    <mxGeometry relative="1" as="geometry"/>
                </mxCell>
                <mxCell id="233" value="" style="html=1;outlineConnect=0;whiteSpace=wrap;fillColor=#e3c800;shape=mxgraph.archimate3.interface;labelBackgroundColor=#FFFF66;strokeColor=#1A1A1A;fontColor=#000000;" vertex="1" parent="1">
                    <mxGeometry x="1200" y="-640" width="70" height="35" as="geometry"/>
                </mxCell>
                <mxCell id="236" value="DiscountCodeRepository" style="text;html=1;align=center;verticalAlign=middle;resizable=0;points=[];autosize=1;strokeColor=none;fillColor=none;fontColor=#1A1A1A;" vertex="1" parent="1">
                    <mxGeometry x="1180" y="-596" width="152" height="20" as="geometry"/>
                </mxCell>
                <mxCell id="245" style="edgeStyle=none;html=1;exitX=0;exitY=0.5;exitDx=0;exitDy=0;exitPerimeter=0;entryX=0.5;entryY=0;entryDx=0;entryDy=0;fontColor=#1A1A1A;strokeColor=#1A1A1A;" edge="1" parent="1" source="237" target="208">
                    <mxGeometry relative="1" as="geometry"/>
                </mxCell>
                <mxCell id="267" style="edgeStyle=none;html=1;entryX=0;entryY=0.5;entryDx=0;entryDy=0;entryPerimeter=0;fontColor=#1A1A1A;strokeColor=#1A1A1A;" edge="1" parent="1" source="237" target="256">
                    <mxGeometry relative="1" as="geometry"/>
                </mxCell>
                <mxCell id="268" style="edgeStyle=none;html=1;entryX=0;entryY=0.5;entryDx=0;entryDy=0;entryPerimeter=0;fontColor=#1A1A1A;strokeColor=#1A1A1A;" edge="1" parent="1" source="237" target="257">
                    <mxGeometry relative="1" as="geometry">
                        <mxPoint x="1276" y="-524" as="sourcePoint"/>
                    </mxGeometry>
                </mxCell>
                <mxCell id="237" value="" style="html=1;outlineConnect=0;whiteSpace=wrap;fillColor=#e3c800;shape=mxgraph.archimate3.interface;labelBackgroundColor=#FFFF66;strokeColor=#1A1A1A;fontColor=#000000;" vertex="1" parent="1">
                    <mxGeometry x="1200" y="-532" width="70" height="35" as="geometry"/>
                </mxCell>
                <mxCell id="238" value="OrdersRepository" style="text;html=1;align=center;verticalAlign=middle;resizable=0;points=[];autosize=1;strokeColor=none;fillColor=none;fontColor=#1A1A1A;" vertex="1" parent="1">
                    <mxGeometry x="1200" y="-497" width="112" height="20" as="geometry"/>
                </mxCell>
                <mxCell id="249" style="edgeStyle=none;html=1;exitX=0;exitY=0.5;exitDx=0;exitDy=0;exitPerimeter=0;entryX=0.5;entryY=0;entryDx=0;entryDy=0;fontColor=#1A1A1A;strokeColor=#1A1A1A;" edge="1" parent="1" source="239" target="214">
                    <mxGeometry relative="1" as="geometry"/>
                </mxCell>
                <mxCell id="269" style="edgeStyle=none;html=1;entryX=0;entryY=0.5;entryDx=0;entryDy=0;entryPerimeter=0;fontColor=#1A1A1A;strokeColor=#1A1A1A;" edge="1" parent="1" source="239" target="258">
                    <mxGeometry relative="1" as="geometry"/>
                </mxCell>
                <mxCell id="270" style="edgeStyle=none;html=1;entryX=0;entryY=0.5;entryDx=0;entryDy=0;entryPerimeter=0;fontColor=#1A1A1A;strokeColor=#1A1A1A;" edge="1" parent="1" source="239" target="259">
                    <mxGeometry relative="1" as="geometry"/>
                </mxCell>
                <mxCell id="239" value="" style="html=1;outlineConnect=0;whiteSpace=wrap;fillColor=#e3c800;shape=mxgraph.archimate3.interface;labelBackgroundColor=#FFFF66;strokeColor=#1A1A1A;fontColor=#000000;" vertex="1" parent="1">
                    <mxGeometry x="1200" y="-420" width="70" height="35" as="geometry"/>
                </mxCell>
                <mxCell id="240" value="ProductRepository" style="text;html=1;align=center;verticalAlign=middle;resizable=0;points=[];autosize=1;strokeColor=none;fillColor=none;fontColor=#1A1A1A;" vertex="1" parent="1">
                    <mxGeometry x="1188" y="-272" width="120" height="20" as="geometry"/>
                </mxCell>
                <mxCell id="251" style="edgeStyle=none;html=1;exitX=0;exitY=0.5;exitDx=0;exitDy=0;exitPerimeter=0;entryX=0.5;entryY=0;entryDx=0;entryDy=0;fontColor=#1A1A1A;strokeColor=#1A1A1A;" edge="1" parent="1" source="242" target="212">
                    <mxGeometry relative="1" as="geometry"/>
                </mxCell>
                <mxCell id="271" style="edgeStyle=none;html=1;entryX=0;entryY=0.5;entryDx=0;entryDy=0;entryPerimeter=0;fontColor=#1A1A1A;strokeColor=#1A1A1A;" edge="1" parent="1" source="242" target="260">
                    <mxGeometry relative="1" as="geometry"/>
                </mxCell>
                <mxCell id="272" style="edgeStyle=none;html=1;entryX=0;entryY=0.75;entryDx=0;entryDy=0;entryPerimeter=0;fontColor=#1A1A1A;strokeColor=#1A1A1A;" edge="1" parent="1" source="242" target="261">
                    <mxGeometry relative="1" as="geometry"/>
                </mxCell>
                <mxCell id="242" value="" style="html=1;outlineConnect=0;whiteSpace=wrap;fillColor=#e3c800;shape=mxgraph.archimate3.interface;labelBackgroundColor=#FFFF66;strokeColor=#1A1A1A;fontColor=#000000;" vertex="1" parent="1">
                    <mxGeometry x="1200" y="-316" width="70" height="35" as="geometry"/>
                </mxCell>
                <mxCell id="243" value="ShoppingCartRepository" style="text;html=1;align=center;verticalAlign=middle;resizable=0;points=[];autosize=1;strokeColor=none;fillColor=none;fontColor=#1A1A1A;" vertex="1" parent="1">
                    <mxGeometry x="1184" y="-380" width="152" height="20" as="geometry"/>
                </mxCell>
                <mxCell id="252" value="NonPersistetDiscountCodeRepository" style="html=1;outlineConnect=0;whiteSpace=wrap;fillColor=#6d8764;shape=mxgraph.archimate.application;appType=interface;labelBackgroundColor=none;fontColor=#ffffff;strokeColor=#3A5431;" vertex="1" parent="1">
                    <mxGeometry x="1860" y="-1035" width="240" height="75" as="geometry"/>
                </mxCell>
                <mxCell id="255" value="DataBaseDiscountCodeRepository" style="html=1;outlineConnect=0;whiteSpace=wrap;fillColor=#6d8764;shape=mxgraph.archimate.application;appType=interface;labelBackgroundColor=none;fontColor=#ffffff;strokeColor=#3A5431;" vertex="1" parent="1">
                    <mxGeometry x="1860" y="-939" width="240" height="75" as="geometry"/>
                </mxCell>
                <mxCell id="256" value="NonPersistetOrdersRepository" style="html=1;outlineConnect=0;whiteSpace=wrap;fillColor=#6d8764;shape=mxgraph.archimate.application;appType=interface;labelBackgroundColor=none;fontColor=#ffffff;strokeColor=#3A5431;" vertex="1" parent="1">
                    <mxGeometry x="1860" y="-766" width="240" height="75" as="geometry"/>
                </mxCell>
                <mxCell id="257" value="DataBaseOrdersRepository" style="html=1;outlineConnect=0;whiteSpace=wrap;fillColor=#6d8764;shape=mxgraph.archimate.application;appType=interface;labelBackgroundColor=none;fontColor=#ffffff;strokeColor=#3A5431;" vertex="1" parent="1">
                    <mxGeometry x="1860" y="-670" width="240" height="75" as="geometry"/>
                </mxCell>
                <mxCell id="258" value="NonPersistetShoppingCartRepository" style="html=1;outlineConnect=0;whiteSpace=wrap;fillColor=#6d8764;shape=mxgraph.archimate.application;appType=interface;labelBackgroundColor=none;fontColor=#ffffff;strokeColor=#3A5431;" vertex="1" parent="1">
                    <mxGeometry x="1860" y="-488.5" width="240" height="75" as="geometry"/>
                </mxCell>
                <mxCell id="259" value="DataBaseShoppingCartRepository" style="html=1;outlineConnect=0;whiteSpace=wrap;fillColor=#6d8764;shape=mxgraph.archimate.application;appType=interface;labelBackgroundColor=none;fontColor=#ffffff;strokeColor=#3A5431;" vertex="1" parent="1">
                    <mxGeometry x="1860" y="-392.5" width="240" height="75" as="geometry"/>
                </mxCell>
                <mxCell id="260" value="NonPersistetProductRepository" style="html=1;outlineConnect=0;whiteSpace=wrap;fillColor=#6d8764;shape=mxgraph.archimate.application;appType=interface;labelBackgroundColor=none;fontColor=#ffffff;strokeColor=#3A5431;" vertex="1" parent="1">
                    <mxGeometry x="1860" y="-215" width="240" height="75" as="geometry"/>
                </mxCell>
                <mxCell id="261" value="DataBaseProductRepository" style="html=1;outlineConnect=0;whiteSpace=wrap;fillColor=#6d8764;shape=mxgraph.archimate.application;appType=interface;labelBackgroundColor=none;fontColor=#ffffff;strokeColor=#3A5431;" vertex="1" parent="1">
                    <mxGeometry x="1860" y="-119" width="240" height="75" as="geometry"/>
                </mxCell>
                <mxCell id="276" style="edgeStyle=none;html=1;entryX=0.5;entryY=0;entryDx=0;entryDy=0;fontColor=#1A1A1A;strokeColor=#1A1A1A;" edge="1" parent="1" source="275" target="208">
                    <mxGeometry relative="1" as="geometry"/>
                </mxCell>
                <mxCell id="283" style="edgeStyle=none;html=1;entryX=0.75;entryY=0;entryDx=0;entryDy=0;entryPerimeter=0;fontColor=#1A1A1A;strokeColor=#1A1A1A;" edge="1" parent="1" source="275" target="237">
                    <mxGeometry relative="1" as="geometry"/>
                </mxCell>
                <mxCell id="275" value="OrderUseCases" style="ellipse;whiteSpace=wrap;html=1;labelBackgroundColor=none;fontColor=#000000;strokeColor=#C73500;fillColor=#fa6800;" vertex="1" parent="1">
                    <mxGeometry x="272" y="-836" width="140" height="70" as="geometry"/>
                </mxCell>
                <mxCell id="280" style="edgeStyle=none;html=1;entryX=0.5;entryY=0;entryDx=0;entryDy=0;fontColor=#1A1A1A;strokeColor=#1A1A1A;" edge="1" parent="1" source="277" target="212">
                    <mxGeometry relative="1" as="geometry"/>
                </mxCell>
                <mxCell id="281" style="edgeStyle=none;html=1;entryX=0.75;entryY=0;entryDx=0;entryDy=0;entryPerimeter=0;fontColor=#1A1A1A;strokeColor=#1A1A1A;" edge="1" parent="1" source="277" target="242">
                    <mxGeometry relative="1" as="geometry"/>
                </mxCell>
                <mxCell id="277" value="ProductUseCases" style="ellipse;whiteSpace=wrap;html=1;labelBackgroundColor=none;fontColor=#000000;strokeColor=#C73500;fillColor=#fa6800;" vertex="1" parent="1">
                    <mxGeometry x="656" y="-670" width="140" height="70" as="geometry"/>
                </mxCell>
                <mxCell id="279" style="edgeStyle=none;html=1;entryX=0.5;entryY=0;entryDx=0;entryDy=0;fontColor=#1A1A1A;strokeColor=#1A1A1A;" edge="1" parent="1" source="278" target="214">
                    <mxGeometry relative="1" as="geometry"/>
                </mxCell>
                <mxCell id="282" style="edgeStyle=none;html=1;entryX=0.75;entryY=0;entryDx=0;entryDy=0;entryPerimeter=0;fontColor=#1A1A1A;strokeColor=#1A1A1A;" edge="1" parent="1" source="278" target="239">
                    <mxGeometry relative="1" as="geometry"/>
                </mxCell>
                <mxCell id="278" value="ShoppingCartUseCases" style="ellipse;whiteSpace=wrap;html=1;labelBackgroundColor=none;fontColor=#000000;strokeColor=#C73500;fillColor=#fa6800;" vertex="1" parent="1">
                    <mxGeometry x="424" y="-570" width="140" height="70" as="geometry"/>
                </mxCell>
            </root>
        </mxGraphModel>
    </diagram>
</mxfile>